<?xml version="1.0" encoding="utf-8"?>
<!-- Uploaded to: SVG Repo, www.svgrepo.com, Generator: SVG Repo Mixer Tools -->
<svg width="800px" height="800px" viewBox="0 -6.83 55.484 55.484" xmlns="http://www.w3.org/2000/svg">
<g transform="translate(-819.325 -209.09)">
<path d="M830.341,217.538a19.3,19.3,0,0,0-4.606,12.57,19.006,19.006,0,0,0,14.6,18.648" fill="none" stroke="#231f20" stroke-linecap="round" stroke-linejoin="round" stroke-width="1"/>
<path d="M833.052,246.26a5.987,5.987,0,0,1,3.847,1.94.246.246,0,0,1,0,.335,4.866,4.866,0,0,1-7.725-.067.247.247,0,0,1,0-.336A5.979,5.979,0,0,1,833.052,246.26Z" fill="none" stroke="#231f20" stroke-linecap="round" stroke-linejoin="round" stroke-width="1"/>
<path d="M826.455,239.3a6.123,6.123,0,0,1,2.948,3.19.244.244,0,0,1-.116.314,5.9,5.9,0,0,1-4.272.373,6.127,6.127,0,0,1-2.948-3.19.245.245,0,0,1,.117-.314A5.9,5.9,0,0,1,826.455,239.3Z" fill="none" stroke="#231f20" stroke-linecap="round" stroke-linejoin="round" stroke-width="1"/>
<path d="M824.232,230.16a6.239,6.239,0,0,1,1.955,3.909.241.241,0,0,1-.2.268,5.905,5.905,0,0,1-4.2-.871,6.242,6.242,0,0,1-1.955-3.91.242.242,0,0,1,.2-.268A5.907,5.907,0,0,1,824.232,230.16Z" fill="none" stroke="#231f20" stroke-linecap="round" stroke-linejoin="round" stroke-width="1"/>
<path d="M826.109,220.822a6.322,6.322,0,0,1,.1,4.392.236.236,0,0,1-.292.153,6.046,6.046,0,0,1-3.416-2.655,6.322,6.322,0,0,1-.1-4.392.236.236,0,0,1,.292-.153A6.046,6.046,0,0,1,826.109,220.822Z" fill="none" stroke="#231f20" stroke-linecap="round" stroke-linejoin="round" stroke-width="1"/>
<path d="M833.948,214.106a6.091,6.091,0,0,1-3.1,3.037.234.234,0,0,1-.307-.118,6.317,6.317,0,0,1-.386-4.375,6.085,6.085,0,0,1,3.1-3.037.233.233,0,0,1,.307.118A6.31,6.31,0,0,1,833.948,214.106Z" fill="none" stroke="#231f20" stroke-linecap="round" stroke-linejoin="round" stroke-width="1"/>
<path d="M863.793,217.538a19.3,19.3,0,0,1,4.606,12.57,19.006,19.006,0,0,1-14.6,18.648" fill="none" stroke="#231f20" stroke-linecap="round" stroke-linejoin="round" stroke-width="1"/>
<path d="M861.082,246.26a5.987,5.987,0,0,0-3.847,1.94.246.246,0,0,0,0,.335,4.866,4.866,0,0,0,7.725-.067.246.246,0,0,0,0-.336A5.974,5.974,0,0,0,861.082,246.26Z" fill="none" stroke="#231f20" stroke-linecap="round" stroke-linejoin="round" stroke-width="1"/>
<path d="M867.678,239.3a6.125,6.125,0,0,0-2.947,3.19.244.244,0,0,0,.116.314,5.9,5.9,0,0,0,4.272.373,6.127,6.127,0,0,0,2.948-3.19.245.245,0,0,0-.117-.314A5.9,5.9,0,0,0,867.678,239.3Z" fill="none" stroke="#231f20" stroke-linecap="round" stroke-linejoin="round" stroke-width="1"/>
<path d="M869.9,230.16a6.239,6.239,0,0,0-1.955,3.909.241.241,0,0,0,.2.268,5.9,5.9,0,0,0,4.2-.871,6.241,6.241,0,0,0,1.955-3.91.242.242,0,0,0-.2-.268A5.907,5.907,0,0,0,869.9,230.16Z" fill="none" stroke="#231f20" stroke-linecap="round" stroke-linejoin="round" stroke-width="1"/>
<path d="M868.025,220.822a6.322,6.322,0,0,0-.1,4.392.236.236,0,0,0,.292.153,6.046,6.046,0,0,0,3.416-2.655,6.322,6.322,0,0,0,.1-4.392.236.236,0,0,0-.292-.153A6.042,6.042,0,0,0,868.025,220.822Z" fill="none" stroke="#231f20" stroke-linecap="round" stroke-linejoin="round" stroke-width="1"/>
<path d="M860.186,214.106a6.091,6.091,0,0,0,3.1,3.037.234.234,0,0,0,.307-.118,6.317,6.317,0,0,0,.386-4.375,6.086,6.086,0,0,0-3.1-3.037.233.233,0,0,0-.307.118A6.311,6.311,0,0,0,860.186,214.106Z" fill="none" stroke="#231f20" stroke-linecap="round" stroke-linejoin="round" stroke-width="1"/>
<path d="M847.238,218.546l-9.83,10.137c-.1.1.069.236.069.378v10.352c0,.3-.208.947.088.947h19.56c.3,0,.352-.651.352-.947V229.061c0-.142.036-.277-.064-.378l-10.007-10.137C847.2,218.335,847.447,218.335,847.238,218.546Z" fill="none" stroke="#231f20" stroke-linecap="round" stroke-linejoin="round" stroke-width="1"/>
<rect width="6" height="7" rx="0.547" transform="translate(844.477 232.36)" stroke-width="1" stroke="#231f20" stroke-linecap="round" stroke-linejoin="round" fill="none"/>
<line y1="12.336" x2="12.564" transform="translate(834.674 218.546)" stroke-width="1" stroke="#231f20" stroke-linecap="round" stroke-linejoin="round" fill="none"/>
<line x1="12.564" y1="12.336" transform="translate(847.301 218.546)" stroke-width="1" stroke="#231f20" stroke-linecap="round" stroke-linejoin="round" fill="none"/>
</g>
</svg>