<svg width="32" height="32" viewBox="0 0 32 32" fill="none" xmlns="http://www.w3.org/2000/svg">
<g filter="url(#filter0_dd_13_924)">
<rect width="24" height="24" transform="translate(4)" fill="white" style="mix-blend-mode:multiply"/>
<path d="M16 12H7V13.5H16V12Z" fill="#2A254B"/>
<path d="M13 8.25H5.5V9.75H13V8.25Z" fill="#2A254B"/>
<path d="M26.4392 12.4548L24.1892 7.2048C24.1315 7.06979 24.0355 6.95469 23.9129 6.87383C23.7904 6.79297 23.6468 6.74991 23.5 6.75H21.25V5.25C21.25 5.05109 21.171 4.86032 21.0303 4.71967C20.8897 4.57902 20.6989 4.5 20.5 4.5H8.5V6H19.75V15.4172C19.4083 15.6156 19.1092 15.8797 18.8701 16.1943C18.6309 16.5089 18.4564 16.8677 18.3566 17.25H13.6434C13.4609 16.543 13.0268 15.9269 12.4224 15.517C11.8181 15.1072 11.085 14.9319 10.3607 15.0239C9.63631 15.1159 8.97038 15.4689 8.48768 16.0168C8.00499 16.5647 7.73869 17.2698 7.73869 18C7.73869 18.7302 8.00499 19.4353 8.48768 19.9832C8.97038 20.5311 9.63631 20.8841 10.3607 20.9761C11.085 21.0681 11.8181 20.8928 12.4224 20.483C13.0268 20.0731 13.4609 19.457 13.6434 18.75H18.3566C18.5201 19.3933 18.8934 19.9638 19.4174 20.3712C19.9414 20.7787 20.5862 20.9999 21.25 20.9999C21.9138 20.9999 22.5586 20.7787 23.0826 20.3712C23.6066 19.9638 23.9799 19.3933 24.1434 18.75H25.75C25.9489 18.75 26.1397 18.671 26.2803 18.5303C26.421 18.3897 26.5 18.1989 26.5 18V12.75C26.5 12.6485 26.4793 12.548 26.4392 12.4548ZM10.75 19.5C10.4533 19.5 10.1633 19.412 9.91665 19.2472C9.66997 19.0824 9.47771 18.8481 9.36418 18.574C9.25065 18.2999 9.22094 17.9983 9.27882 17.7074C9.3367 17.4164 9.47956 17.1491 9.68934 16.9393C9.89912 16.7296 10.1664 16.5867 10.4574 16.5288C10.7483 16.4709 11.0499 16.5006 11.324 16.6142C11.5981 16.7277 11.8324 16.92 11.9972 17.1666C12.162 17.4133 12.25 17.7033 12.25 18C12.2495 18.3977 12.0914 18.779 11.8102 19.0602C11.5289 19.3414 11.1477 19.4995 10.75 19.5ZM21.25 8.25H23.0056L24.6129 12H21.25V8.25ZM21.25 19.5C20.9533 19.5 20.6633 19.412 20.4166 19.2472C20.17 19.0824 19.9777 18.8481 19.8642 18.574C19.7506 18.2999 19.7209 17.9983 19.7788 17.7074C19.8367 17.4164 19.9796 17.1491 20.1893 16.9393C20.3991 16.7296 20.6664 16.5867 20.9574 16.5288C21.2483 16.4709 21.5499 16.5006 21.824 16.6142C22.0981 16.7277 22.3324 16.92 22.4972 17.1666C22.662 17.4133 22.75 17.7033 22.75 18C22.7495 18.3977 22.5914 18.779 22.3102 19.0602C22.0289 19.3414 21.6477 19.4995 21.25 19.5ZM25 17.25H24.1434C23.9782 16.6076 23.6045 16.0382 23.0808 15.631C22.5572 15.2239 21.9133 15.0019 21.25 15V13.5H25V17.25Z" fill="#2A254B"/>
</g>
<defs>
<filter id="filter0_dd_13_924" x="0" y="0" width="32" height="32" filterUnits="userSpaceOnUse" color-interpolation-filters="sRGB">
<feFlood flood-opacity="0" result="BackgroundImageFix"/>
<feColorMatrix in="SourceAlpha" type="matrix" values="0 0 0 0 0 0 0 0 0 0 0 0 0 0 0 0 0 0 127 0" result="hardAlpha"/>
<feOffset dy="4"/>
<feGaussianBlur stdDeviation="2"/>
<feComposite in2="hardAlpha" operator="out"/>
<feColorMatrix type="matrix" values="0 0 0 0 0 0 0 0 0 0 0 0 0 0 0 0 0 0 0.25 0"/>
<feBlend mode="normal" in2="BackgroundImageFix" result="effect1_dropShadow_13_924"/>
<feColorMatrix in="SourceAlpha" type="matrix" values="0 0 0 0 0 0 0 0 0 0 0 0 0 0 0 0 0 0 127 0" result="hardAlpha"/>
<feOffset dy="4"/>
<feGaussianBlur stdDeviation="2"/>
<feComposite in2="hardAlpha" operator="out"/>
<feColorMatrix type="matrix" values="0 0 0 0 0 0 0 0 0 0 0 0 0 0 0 0 0 0 0.25 0"/>
<feBlend mode="normal" in2="effect1_dropShadow_13_924" result="effect2_dropShadow_13_924"/>
<feBlend mode="normal" in="SourceGraphic" in2="effect2_dropShadow_13_924" result="shape"/>
</filter>
</defs>
</svg>
